/* XPM */
static char * bulb_xpm[] = {
"16 16 9 1",
" 	s None	c None",
".	c grey4",
"X	c yellow1",
"o	c yellow3",
"O	c white",
"+	c goldenrod1",
"@	c DarkOrange1",
"#	c grey64",
"$	c grey26",
"      ....      ",
"     XXXXXX     ",
"    XoOOOoXX    ",
"   .XOOOOoXX.   ",
"   XoOOOOOoX+   ",
"   XoOO@@OoX+   ",
"   XXOO@+oXX+   ",
"   .XoOooXXX.   ",
"    XXXXXXX+    ",
"     +XXXX+     ",
"      @o+@      ",
"      @o+@      ",
"      #..$      ",
"      #..$      ",
"      #..$      ",
"       ..       "};
