/* XPM */
static char * tipseen_xpm[] = {
"16 16 11 1",
" 	c None",
".	c red",
"X	c black",
"o	c blue",
"O	c #79E77DF779E7",
"+	c yellow",
"@	c #410341034103",
"#	c white",
"$	c #CF3CCF3C0000",
"%	c #FFFFC30B2081",
"&	c #FFFF7DF70000",
"  ..X           ",
" .Xo.X   ...    ",
" .Xoo.OOOOo.    ",
" .XooO++++O...  ",
" .Xo@+###$+OX.  ",
" .XO+$####+%O.  ",
" .XO+$#&&#+%O.  ",
" .XoO+$$$++OX.  ",
" .Xoo+++++%OX.  ",
"  .Xoo%+++OXX.  ",
"   .XoX$%&ooX.  ",
"    .XXOOXXXX.  ",
"    ..XOO.....  ",
"     ....       ",
"                ",
"                "};
