/* XPM */
static char * calc_xpm[] = {
/*tan*/
"32 32 13 1",
/*U‰åƒì0WVS‹u€=Pi*/
" 	s None	c None",
".	c dark slate grey",
"X	c white",
"o	c black",
"O	c #727277778585",
"+	c light yellow",
"@	c gray70",
"#	c green",
"$	c gray85",
"%	c peachpuff4",
"&	c tan",
"*	c #8B8B5B5B7A7A",
"=	c blue",
/*Filename: calc.xpm Size:45x38*/
"                .......         ",
"               ..XXXXXXo        ",
"              ..XXXXXXXoo       ",
"              oXXXXXXXXXo       ",
"             OXXXXXXo....       ",
"            O+XXXXXoO  ..       ",
"           O+@..XXXo+OOOO       ",
"          O@@..#.....++++OOO    ",
"         +@.......#..##...++++O ",
"        O@...#..##..........++$O",
"        O@..#.##.....##.....+$%O",
"O     OO+++.....#....#......+%%O",
"&OOOOOOOO+++++....##.#.....+$%%O",
"&&&&&&&&&&&&OO+++++.......+$%%%O",
"&&&&&&&&&&&&&&**++++++...++%%%%O",
"&&&&&OOOOOO&&&+*+++==+++++$%%%%O",
"&&&&OOOO@@@OOO*O+*+++==++$%%%%%O",
"&&&&O&&O**@@O*O+*+*++++=$%%%%%O ",
"&&&&OOOO+@@**O++++O+++++$%%%%O  ",
"&&OO&&O@@*+*O+**OO+++++$%%%%O   ",
"&&OO&&O@@O*O++++++++++$%%%%O    ",
"&&&&&&O+*+O++*+*++++++%%%%O     ",
"&&&&&&+*+*+++O*O+++++$%%%O      ",
"&&&&OO*++O+**+O+++++$%%%O       ",
"&OOO+++OO+*+*O*++*++%%%O        ",
"OOoo$$++++O*O+++*O+$%%O         ",
"  OOoo$$+++O+*++O+$%%O          ",
"    OOOO$$+++O**+$%%O           ",
"       OOO$$++OO+$%O            ",
"          OO$$X$$%O             ",
"            OOOX%O              ",
"              OOO               "};
