/* XPM */
static char * consline_xpm[] = {
"32 32 3 1",
" 	s None	c None",
".	c steel blue",
"X	c black",
"             ..                 ",
"         .   ..                 ",
"         ..                     ",
"         ... ..                 ",
"    ...........                 ",
"         ... ..                 ",
"         ..                     ",
"         .   ..                 ",
"             ..                 ",
"                                ",
"             ..                 ",
"             ..                 ",
"                                ",
"             ..                 ",
"XXXXXXXXXXXXX..XXXXXXXXXXXXXXXXX",
"XXXXXXXXXXXXX..XXXXXXXXXXXXXXXXX",
"             ..                 ",
"                                ",
"             ..                 ",
"             ..                 ",
"                                ",
"             ..                 ",
"             ..                 ",
"                                ",
"             ..                 ",
"             ..                 ",
"             ..                 ",
"             ..                 ",
"             ..                 ",
"                                ",
"             ..                 ",
"                                "};
