/* XPM */
static char * delcolumn_xpm[] = {
"32 32 5 1",
" 	s None	c None",
".	c red",
"X	c black",
"o	c white",
"O	c blue",
"                                ",
"                                ",
"                                ",
"               ..  ..           ",
"               ..  ..           ",
"   XXXXXXXXXXXX..XX..XXXXXXXX   ",
"   XooooXoooooXo....oXooooooX   ",
"   XoOOoXoOOOoXo....oXoOOOOoX   ",
"   XoOOoXoOOOoXo....oXoOOOOoX   ",
"   XooooXoooooXo....oXooooooX   ",
"   XXXXXXXXXXXXX....XXXXXXXXX   ",
"   XooooXoooooXo....oXooooooX   ",
"   XoOOoXoOOOoXoo..ooXooOOooX   ",
"   XooooXoooooXoo..ooXooooooX   ",
"   XoOOoXooOOoXoO..OoXoOOOOoX   ",
"   XooooXoooooXoo..ooXooooooX   ",
"   XooOoXoOOOoXoO..OoXooOOooX   ",
"   XooooXoooooXoo..ooXooooooX   ",
"   XoOOoXoOOOoXo....oXoOOOOoX   ",
"   XooooXoooooXo....oXooooooX   ",
"   XooOoXooOOoXo....oXoOOOOoX   ",
"   XooooXoooooXo....oXooooooX   ",
"   XoOOoXooOOoXo....oXooOOooX   ",
"   XooooXoooooXo....oXooooooX   ",
"   XXXXXXXXXXXX..XX..XXXXXXXX   ",
"               ..  ..           ",
"               ..  ..           ",
"                                ",
"                                ",
"                                ",
"                                ",
"                                "};
