/* XPM */
static char * dellastrow_xpm[] = {
"32 32 5 1",
" 	s None	c None",
".	c black",
"X	c white",
"o	c blue",
"O	c red",
"                                ",
"                                ",
"                                ",
"                                ",
"                                ",
"   ..........................   ",
"   .XXXX.XXXXX.XXXXXX.XXXXXX.   ",
"   .XooX.XoooX.XooooX.XooooX.   ",
"   .XooX.XoooX.XooooX.XooooX.   ",
"   .XXXX.XXXXX.XXXXXX.XXXXXX.   ",
"   ..........................   ",
"   .XXXX.XXXXX.XXXXXX.XXXXXX.   ",
"   .XooX.XoooX.XXooXX.XXooXX.   ",
"   .XXXX.XXXXX.XXXXXX.XXXXXX.   ",
"   .XooX.XXooX.XooooX.XooooX.   ",
"   .XXXX.XXXXX.XXXXXX.XXXXXX.   ",
"   .XXoX.XoooX.XooooX.XXooXX.   ",
"   .XXXX.XXXXX.XXXXXX.XXXXXX.   ",
"   .XooX.XoooX.XXooXX.XooooX.   ",
"   .XXXX.XXXXX.XXXXXX.XXXXXX.   ",
"   .XXoX.XXooX.XXooXX.XooooX.   ",
" OOOOXXX.XXXXX.XXXXXX.XXXXXOOOO ",
" OOOOOOOOOOOoX.XooooOOOOOOOOOOO ",
"   .XOOOOOOOOOOOOOOOOOOOOOOX.   ",
"   ..OOOOOOOOOOOOOOOOOOOOOO..   ",
" OOOOOOOOOOO        OOOOOOOOOOO ",
" OOOO                      OOOO ",
"                                ",
"                                ",
"                                ",
"                                ",
"                                "};
