/* XPM */
static char * dotruler_xpm[] = {
"32 32 6 1",
" 	s None	c None",
".	c steel blue",
"X	c yellow",
"o	c navajo white",
"O	c black",
"+	c white",
"                                ",
"                                ",
"                                ",
"                                ",
"          ...................   ",
"     .    ....XX....oooooooo.   ",
"     .    ....XX....ooOoooOo.   ",
"  ....... ..........ooOooOoo.   ",
"   .....  ..........ooOoooOo.   ",
"    ...   ..........oooooooo.   ",
"     .    ....XX.............   ",
"  ..... ..+.++XX.++..........   ",
"     .    ...................   ",
"     .    ...................   ",
"     .    ...................   ",
"     .    ....XX.............   ",
"  ..... ..+.++XX.++..........   ",
"     .    ...................   ",
"    ...   ...................   ",
"   .....  ...................   ",
"  ....... ....XX.............   ",
"     .    ....XX.............   ",
"     .    ...................   ",
"          ...................   ",
"          ...................   ",
"          ....XX...XX..XX....   ",
"          ....XX...XX..XX....   ",
"          ...................   ",
"                                ",
"                                ",
"                                ",
"                                "};
