/* XPM */
static char * editstate_xpm[] = {
/* width height num_colors chars_per_pixel */
"16 14 7 1",
/* colors */
" 	c gray50",
".	s None	c None",
"X	c white",
"o	c black",
"O	c blue",
"+	c light cyan",
"@	c green",
/* pixels */
"         .......",
" XXXXXXX o......",
" XXoXXXX Xo....O",
" oooooXX ooo..OO",
" XXoXXooXXXo.OOo",
" Xo+oXXXooXoOOo.",
" @o+o@@@@@@OOo..",
" @o+o@@@@@OOo...",
" Xo+oXXXXoOo....",
" XXoXXXXoooo....",
" XXoXXXoooXo....",
" XXoXXoXXXXo....",
" XXXXXXXXXXo....",
"oooooooooooo...."};
