/* XPM */
static char * experiment_xpm[] = {
"32 19 6 1",
" 	s None	c None",
".	c black",
"X	c white",
"o	c lime green",
"O	c light cyan",
"+	c green",
"               ..........       ",
"              .XXXXXXXXXX.      ",
"               ........XXX.     ",
"                  .XXXXXXXX.    ",
"                   ......XX.    ",
"                  .XXXXXXXX.    ",
"                   .....XX.X.   ",
"    ..            .XXXXXX.XXX.  ",
"   .o.      .      ....X.XXXXX. ",
"....o.     .O.         .XX.XXX. ",
"ooo.o.........          .XXXX.  ",
"ooo.o.     .O....        .XX.   ",
"....o.    .OOO.  ..       ..    ",
"   .o.    .OOO.    ...          ",
"++++..++++.OOO.+++++++...+++++++",
"          .OOO.          ..     ",
"          .OOO.            ...  ",
"           .O.                ..",
"           .O.                  "};
