/* XPM */
static char * extbeam_xpm[] = {
"32 32 4 1",
" 	s None	c None",
".	c black",
"X	c magenta",
"o	c green",
"                                ",
"                                ",
"                                ",
"                                ",
"                                ",
"                                ",
"                                ",
"                                ",
"                       ..       ",
"                      .         ",
"                     .          ",
"                   ..           ",
"                  .             ",
"                ..              ",
" ...............                ",
"              X                 ",
"            XX                  ",
"           X                    ",
"          X                     ",
"        XX                      ",
"       X                        ",
"     XX                         ",
" oooXoooooooooooooooooooooooooo ",
" ooXooooooooooooooooooooooooooo ",
" XX                             ",
"                                ",
"                                ",
"                                ",
"                                ",
"                                ",
"                                ",
"                                "};
