#define eye_width 32
#define eye_height 32
static unsigned char eye_bits[] = {
   0x00, 0x00, 0x00, 0x00, 0x00, 0xc0, 0x00, 0x00, 0x00, 0xb0, 0x00, 0x00,
   0x00, 0x90, 0x00, 0x00, 0x00, 0x08, 0x01, 0x00, 0x00, 0x14, 0x01, 0x00,
   0x00, 0x32, 0x01, 0x00, 0x00, 0x2a, 0x02, 0x00, 0x00, 0x46, 0x04, 0x00,
   0x00, 0x4f, 0x04, 0x00, 0x00, 0xaf, 0x08, 0x00, 0x00, 0x9f, 0x10, 0x00,
   0x80, 0x1f, 0x21, 0x00, 0x80, 0xff, 0xc1, 0x00, 0x80, 0x1f, 0x01, 0x01,
   0x80, 0x1f, 0x01, 0x02, 0x80, 0xff, 0x01, 0x02, 0x80, 0x1f, 0x01, 0x01,
   0x80, 0x1f, 0xc1, 0x00, 0x80, 0xff, 0x21, 0x00, 0x00, 0x1f, 0x11, 0x00,
   0x00, 0x9f, 0x08, 0x00, 0x00, 0xaf, 0x04, 0x00, 0x00, 0x46, 0x04, 0x00,
   0x00, 0x6a, 0x02, 0x00, 0x00, 0x32, 0x01, 0x00, 0x00, 0x14, 0x01, 0x00,
   0x00, 0x08, 0x01, 0x00, 0x00, 0x90, 0x00, 0x00, 0x00, 0xa0, 0x00, 0x00,
   0x00, 0xc0, 0x00, 0x00, 0x00, 0x00, 0x00, 0x00};
