/* XPM */
static char * eye_xpm[] = {
"32 32 5 1 8 15",
" 	s None	c None",
".	c black",
"X	c light cyan",
"o	c white",
"O	c saddle brown",
"                                ",
"               ..               ",
"              .X.               ",
"             .XX.               ",
"            .XXXX.              ",
"           .o.XXX.              ",
"          Ooo..XX.              ",
"          Oo.o.XXX.             ",
"          OOooo.XXX.            ",
"         OOOOoo.XXX.            ",
"         OOOOo.o.XXX.           ",
"         OOOOOoo.XXXX.          ",
"        OOOOOOooo.XXXX.         ",
"        OOOOOO....XXXXX..       ",
"        OOOOOOooo.XXXXXXX.      ",
"        OOOOOOooo.XXXXXXXX.     ",
"        OOOOOO....XXXXXXXX.     ",
"        OOOOOOooo.XXXXXXX.      ",
"        OOOOOOooo.XXXXX..       ",
"        OOOOOO....XXXX.         ",
"         OOOOOooo.XXX.          ",
"         OOOOOoo.XXX.           ",
"         OOOOo.o.XX.            ",
"          OOooo.XXX.            ",
"          Oo.o..XX.             ",
"          Ooo..XX.              ",
"           .o.XXX.              ",
"            .XXXX.              ",
"             .XX.               ",
"              .X.               ",
"               ..               ",
"                                "};
