/* XPM */
static char * eyeshield_xpm[] = {
"32 32 7 1",
" 	s None	c None",
".	c steel blue",
"X	c black",
"o	c yellow",
"O	c light cyan",
"+	c white",
"@	c saddle brown",
"                         .......",
"               XX        .o.....",
"              XOX        .......",
"             XOOX        .o.....",
"            XOOOOX       .......",
"           X+XOOOX       .o.....",
"          @++XXOOX       .......",
"          @+X+XOOOX      .o.....",
"          @@+++XOOOX     .......",
"         @@@@++XOOOX     .o.o.o.",
"         @@@@+X+XOOOX    .......",
"         @@@@@++XOOOOX          ",
"        @@@@@@+++XOOOOX         ",
"        @@@@@@XXXXOOOOOXX       ",
"        @@@@@@+++XOOOOOOOX      ",
"        @@@@@@+++XOOOOOOOOX     ",
"        @@@@@@XXXXOOOOOOOOX     ",
"        @@@@@@+++XOOOOOOOX      ",
"        @@@@@@+++XOOOOOXX       ",
"        @@@@@@XXXXOOOOX         ",
"         @@@@@+++XOOOX          ",
"         @@@@@++XOOOX           ",
"         @@@@+X+XOOX            ",
"          @@+++XOOOX            ",
"          @+X+XXOOX             ",
"          @++XXOOX              ",
"           X+XOOOX              ",
"            XOOOOX              ",
"             XOOX               ",
"              XOX               ",
"               XX               ",
"                                "};
