/* XPM */
static char * focald_xpm[] = {
"32 32 6 1",
" 	s None	c None",
".	c steel blue",
"X	c black",
"o	c yellow",
"O	c light cyan",
"+	c white",
"       .                     .  ",
"       .                     .  ",
"      X.XX        XXXXX      .  ",
"ooooooo.oX        XXXXX      .  ",
"ooooooo.ooo       XX         .  ",
"     XO.Ooooo    XX          .  ",
"     XO.OOXoooo  XXXXX       .  ",
"     XO.OOX  ooo XXXXX       .  ",
"    XOO.OO.X   ooXX       .  .  ",
"    XOO.O..X     XXo      .. .  ",
"    XOO.......  XXoooo  ......  ",
"    XOO.O..X    XX  ooo   ..+.  ",
"    XOO.OO.X    XX    ooo .++.  ",
"    XOO.OOOX            ooo++.  ",
"   XOOO.OOOOX             ooo.  ",
"XXXXXXX.XXXXXXXXXXXXXXXXXXXXo.XX",
"XXXXXXX.XXXXXXXXXXXXXXXXXXXXo.XX",
"   XOOO.OOOOX             ooo.  ",
"    XOO.OOOX            ooo  .  ",
"    XOO.OOOX          ooo    .  ",
"    XOO.OOOX        ooo      .  ",
"    XOO.OOOX       ooo       .  ",
"    XOO.OOOX     ooo         .  ",
"    XOO.OOOX   ooo           .  ",
"     XO.OOX  ooo             .  ",
"     XO.OOXoooo              .  ",
"     XO.Ooooo                .  ",
"ooooooo.ooo                  .  ",
"ooooooo.oX                   .  ",
"      X.XX                   .  ",
"       .                     .  ",
"       .                     .  "};
