/* XPM */
static char * gauge_xpm[] = {
"32 32 3 1",
" 	s None	c None",
".	c black",
"X	c white",
"                                ",
"                                ",
"            .......             ",
"         ...XX...XX...          ",
"        ..XXXX...XXXX..         ",
"      .....XXX...XXX.....       ",
"     .XXX.XXXXXXXXXXX.XXX.      ",
"    .XXXXXXXXXXXXXXXXXXXXX.     ",
"    ..XXXXXXXXXXXXXXXXXXX..     ",
"   ....X....XXXXXXXXXXXX....    ",
"  .XX.XX...XXXXXXXXXXXXXX.XX.   ",
"  .XXXXX....XXXXXXXXXXXXXXXX.   ",
"  .XXXXX.....XXXXXXXXXXXXXXX.   ",
" .XXXXXX.XX...XXXXXXXXXXXXXXX.  ",
" .XXXXXXXXXX.....XXXXXXXXXXXX.  ",
" ....XXXXXXXX.....XXXXXXXX....  ",
" ....XXXXXXXX.....XXXXXXXX....  ",
" ....XXXXXXXX.....XXXXXXXX....  ",
" .XXXXXXXXXXX.....XXXXXXXXXXX.  ",
" .XXXXXXXXXX.     .XXXXXXXXXX.  ",
"  .XXXXXXXX.       .XXXXXXXX.   ",
"  .X.XXXXX.         .XXXXX.X.   ",
"  ....XXXX.         .XXXX....   ",
"   ..XXXX.           .XXXX..    ",
"    .XXX.             .XXX.     ",
"     .X.               .X.      ",
"      .                 .       ",
"                                ",
"                                ",
"                                ",
"                                ",
"                                "};
