/* XPM */
static char * hypothesis_xpm[] = {
"32 32 6 1",
" 	s None	c None",
".	c blue",
"X	c yellow",
"o	c light cyan",
"O	c white",
"+	c black",
"                                ",
"                                ",
"                                ",
"     .....              ....    ",
"    .......             ....    ",
"   ...   ...   X   X    ....    ",
"   ..     ..   X   X    ....    ",
"   ..     ..   X   X    ....    ",
"         ...   X   X     ..     ",
"        ...     X X      ..     ",
"      ....      X X      ..     ",
"      ..        X X      ..     ",
"      ..        X X             ",
"                                ",
"      ..       ooooo     ..     ",
"      ..      oOOOOOo    ..     ",
"             oOOOOOOOo          ",
"            oOOO+X+OOOo         ",
"            oOO+X+X+OOo         ",
"             oO+X+X+Oo          ",
"       XXXXX oOO+X+OOo XXXXX    ",
"              oOO+OOo           ",
"           X  oOO+OOo  X        ",
"          X    oO+Oo    X       ",
"         X     oOOOo     X      ",
"        X    +++++++++    X     ",
"       X    ++       ++    X    ",
"             +++++++++          ",
"            ++       ++         ",
"             +++++++++          ",
"                                ",
"                                "};
