/* XPM */
static char * ideallens_xpm[] = {
"32 32 4 1",
" 	s None	c None",
".	c steel blue",
"X	c black",
"o	c white",
"              .                 ",
"              .                 ",
"              .                 ",
"                                ",
"             XXX                ",
"             XoX                ",
"             X.X                ",
"             X.X                ",
"             X.X                ",
"             XoX                ",
"             X.X                ",
"             XoX                ",
"             X.X                ",
"             X.X                ",
"             X.X                ",
"             XoX                ",
"             X.X                ",
"             XoX                ",
"             X.X                ",
"             X.X                ",
"             X.X                ",
"             XoX                ",
"             X.X                ",
"             XoX                ",
"             X.X                ",
"             X.X                ",
"             X.X                ",
"             XXX                ",
"              .                 ",
"                                ",
"              .                 ",
"              .                 "};
