/* XPM */
static char * ideallensA_xpm[] = {
"32 32 4 1",
" 	s None	c None",
".	c steel blue",
"X	c black",
"o	c white",
"              .                 ",
"              .      XX         ",
"              .      XX         ",
"                    XXXX        ",
"             XXX    X  X        ",
"             XoX   XX  XX       ",
"             X.X   XX  XX       ",
"             X.X  XX    XX      ",
"             X.X  XXXXXXXX      ",
"             XoX  XX    XX      ",
"             X.X XX      XX     ",
"             XoX XX      XX     ",
"             X.X                ",
"             X.X                ",
"             X.X                ",
"             XoX                ",
"             X.X                ",
"             XoX                ",
"             X.X                ",
"             X.X                ",
"             X.X                ",
"             XoX                ",
"             X.X                ",
"             XoX                ",
"             X.X                ",
"             X.X                ",
"             X.X                ",
"             XXX                ",
"              .                 ",
"                                ",
"              .                 ",
"              .                 "};
