/* XPM */
static char * ideallensC_xpm[] = {
"32 32 4 1",
" 	s None	c None",
".	c steel blue",
"X	c black",
"o	c white",
"              .                 ",
"              .                 ",
"              .      XXXXX      ",
"                   XXXX XXX     ",
"             XXX   XX     X     ",
"             XoX  XX            ",
"             X.X  XX            ",
"             X.X  XX            ",
"             X.X  XX            ",
"             XoX  XX            ",
"             X.X   XX     X     ",
"             XoX   XXXX XXX     ",
"             X.X     XXXXX      ",
"             X.X                ",
"             X.X                ",
"             XoX                ",
"             X.X                ",
"             XoX                ",
"             X.X                ",
"             X.X                ",
"             X.X                ",
"             XoX                ",
"             X.X                ",
"             XoX                ",
"             X.X                ",
"             X.X                ",
"             X.X                ",
"             XXX                ",
"              .                 ",
"                                ",
"              .                 ",
"              .                 "};
