/* XPM */
static char * ideallensB_xpm[] = {
"32 32 4 1",
" 	s None	c None",
".	c steel blue",
"X	c black",
"o	c white",
"              .                 ",
"              .    XXXXXXX      ",
"              .    XX   XXX     ",
"                   XX    XX     ",
"             XXX   XX    XX     ",
"             XoX   XX   XX      ",
"             X.X   XXXXXX       ",
"             X.X   XX   XX      ",
"             X.X   XX    XX     ",
"             XoX   XX    XX     ",
"             X.X   XX   XXX     ",
"             XoX   XXXXXXX      ",
"             X.X                ",
"             X.X                ",
"             X.X                ",
"             XoX                ",
"             X.X                ",
"             XoX                ",
"             X.X                ",
"             X.X                ",
"             X.X                ",
"             XoX                ",
"             X.X                ",
"             XoX                ",
"             X.X                ",
"             X.X                ",
"             X.X                ",
"             XXX                ",
"              .                 ",
"                                ",
"              .                 ",
"              .                 "};
