/* XPM */
static char * lamp2_xpm[] = {
"32 32 4 1",
" 	s None	c None",
".	c black",
"X	c yellow",
"o	c lime green",
"                       ..       ",
"                       ..XXXXXX ",
"                      .o.       ",
"                      .o.XXXXXX ",
"                      .o.       ",
"                     .oo.XXXXXX ",
"                     .oo.       ",
"                     ..o.XXXXXX ",
"                    .o.o.       ",
"                    .o.o.XXXXXX ",
"                    .o.o.       ",
"                   .oo.o.XXXXXX ",
"  ..................oo.o.       ",
"  .oooooooooooooooo.oo.o.XXXXXX ",
"  .o..............o.oo.o.       ",
"  .oooooooooooooooo.oo.o.XXXXXX ",
"  .o..............o.oo.o.       ",
"  .oooooooooooooooo.oo.o.XXXXXX ",
"  ..................oo.o.       ",
"                   .oo.o.XXXXXX ",
"                    .o.o.       ",
"                    .o.o.XXXXXX ",
"                    .o.o.       ",
"                     ..o.XXXXXX ",
"                     .oo.       ",
"                     .oo.XXXXXX ",
"                      .o.       ",
"                      .o.XXXXXX ",
"                      .o.       ",
"                       ..XXXXXX ",
"                       ..       ",
"                                "};
