/* XPM */
static char * lamp1_xpm[] = {
"32 32 4 1",
" 	s None	c None",
".	c black",
"X	c lime green",
"o	c yellow",
"                                ",
"                                ",
"                                ",
"                                ",
"                                ",
"                                ",
"                     ..         ",
"                     ..         ",
"                    .X.         ",
"                    .X.         ",
"                    .X.         ",
"                   .XX.         ",
"  ..................XX.         ",
"  .XXXXXXXXXXXXXXXX.XX.         ",
"  .X..............X.XX.oooooooo ",
"  .XXXXXXXXXXXXXXXX.XX.oooooooo ",
"  .X..............X.XX.oooooooo ",
"  .XXXXXXXXXXXXXXXX.XX.         ",
"  ..................XX.         ",
"                   .XX.         ",
"                    .X.         ",
"                    .X.         ",
"                    .X.         ",
"                     ..         ",
"                     ..         ",
"                                ",
"                                ",
"                                ",
"                                ",
"                                ",
"                                ",
"                                "};
