/* XPM */
static char * lamp3_xpm[] = {
"32 32 4 1",
" 	s None	c None",
".	c black",
"X	c lime green",
"o	c yellow",
"                                ",
"                                ",
"                                ",
"                                ",
"                                ",
"                                ",
"                     ..         ",
"                     ..         ",
"                    .X.         ",
"                    .X.         ",
"                    .X.         ",
"                   .XX.         ",
"  ..................XX.         ",
"  .XXXXXXXXXXXXXXXX.XX.      ooo",
"  .X..............X.XX.   oooooo",
"  .XXXXXXXXXXXXXXXX.XX.ooooooooo",
"  .X..............X.XX.   oooooo",
"  .XXXXXXXXXXXXXXXX.XX.      ooo",
"  ..................XX.         ",
"                   .XX.         ",
"                    .X.         ",
"                    .X.         ",
"                    .X.         ",
"                     ..         ",
"                     ..         ",
"                                ",
"                                ",
"                                ",
"                                ",
"                                ",
"                                ",
"                                "};
