/* XPM */
static char * measure_xpm[] = {
"32 32 4 1",
" 	s None	c None",
".	c grey50",
"X	c black",
"o	c white",
"                                ",
"                                ",
"                                ",
"                                ",
"                                ",
"                                ",
"     ....                       ",
"     ....                       ",
"    ......                      ",
"   XXXXXXXXXXXXXXXXXXXXXXXXXX   ",
"   X........................X   ",
"   X........................X   ",
"   X..........XXX...........X   ",
"   X.........XoooX..........X   ",
"   X........XoooooX.........X   ",
"   X.......XoooooooX........X   ",
"   X.......XoooooooX........X   ",
"   X.......XoooooooX........X   ",
"   X........XoooooX.........X   ",
"   X.........XoooX..........X   ",
"   X..........XXX...........X   ",
"   X........................X   ",
"   X........................X   ",
"   XXXXXXXXXXXXXXXXXXXXXXXXXX   ",
"                                ",
"                                ",
"                                ",
"                                ",
"                                ",
"                                ",
"                                ",
"                                "};
