/* XPM */
static char * movelamp_xpm[] = {
"32 32 6 1",
" 	s None	c None",
".	c steel blue",
"X	c black",
"o	c lime green",
"O	c yellow",
"+	c green",
"                                ",
"   .   X                  .     ",
"   .  XXX                 .     ",
"  XX XXXXX                      ",
" XoX   X                  .     ",
" XoX   X                        ",
" ooXOO X                  .     ",
" ooXOOOO                  .     ",
" XoX  OOOOO               .     ",
" XoX   XOOOOO                   ",
"  XX   X   OOOO           .     ",
"       X     OOOOO              ",
"   . XXXXX     OOOOO      .     ",
"   .  XXX         OOOOO   .     ",
"   .   X            OOOOO .     ",
"    +++++++++++++++++++OOOO++++ ",
"   .+++++++++++++++++++++OO++++ ",
"                                ",
"   .                      .     ",
"   .                      .     ",
"   .                      .     ",
"                                ",
"   .                      .     ",
"                                ",
"   .                      .     ",
"   .                      .     ",
"   .                      .     ",
"                                ",
"   .                      .     ",
"                                ",
"   .                      .     ",
"                                "};
