/* XPM */
static char * neglens_xpm[] = {
"32 32 3 1",
" 	s None	c None",
".	c black",
"X	c light cyan",
"                                ",
"                                ",
"           .........            ",
"           .XXXXXXX.            ",
"           .XXXXXXX.            ",
"            .XXXXX.             ",
"            .XXXXX.             ",
"            .XXXXX.             ",
"             .XXX.              ",
"             .XXX.              ",
"             .XXX.              ",
"             .XXX.              ",
"             .XXX.              ",
"             .XXX.              ",
"              .X.               ",
"              .X.               ",
"              .X.               ",
"              .X.               ",
"             .XXX.              ",
"             .XXX.              ",
"             .XXX.              ",
"             .XXX.              ",
"             .XXX.              ",
"             .XXX.              ",
"            .XXXXX.             ",
"            .XXXXX.             ",
"            .XXXXX.             ",
"           .XXXXXXX.            ",
"           .XXXXXXX.            ",
"           .........            ",
"                                ",
"                                "};
