/* XPM */
static char * operant_xpm[] = {
"16 16 3 1",
" 	s None	c None",
".	c slate blue",
"X	c white",
"                ",
"                ",
"      ...       ",
"    .......     ",
"   .........    ",
"   ...XXX...    ",
"  ....X.X....   ",
"  ......X....   ",
"  .....X.....   ",
"   .........    ",
"   ....X....    ",
"    .......     ",
"      ...       ",
"                ",
"                ",
"                "};
