/* XPM */
static char * parlamp_xpm[] = {
"32 32 4 1",
" 	s None	c None",
".	c black",
"X	c lime green",
"o	c yellow",
"                                ",
"                     .          ",
"                    ..          ",
"                    ..          ",
"       .............X.          ",
"       .X.XX.XX.XXX.X.ooooooooo ",
"       .XXXX.XX.XXX.X.ooooooooo ",
"       .............X.          ",
"            .  .    ..          ",
"            .  .    ..          ",
"            .  .     .          ",
"            .  .     .          ",
"            .  .    ..          ",
"            .  .    ..          ",
"       .............X.          ",
"       .X.XX.XX.XXX.X.ooooooooo ",
"       .XXXX.XX.XXX.X.ooooooooo ",
"       .............X.          ",
"            .  .    ..          ",
"            .  .    ..          ",
"            .  .     .          ",
"            .  .     .          ",
"            .  .    ..          ",
"            .  .    ..          ",
"       .............X.          ",
"       .X.XX.XX.XXX.X.ooooooooo ",
"       .XXXX.XX.XXX.X.ooooooooo ",
"       .............X.          ",
"                    ..          ",
"                    ..          ",
"                     .          ",
"                                "};
