/* XPM */
static char * parlampout_xpm[] = {
"32 32 3 1 22 15",
" 	s None	c None",
".	c black",
"X	c lime green",
"                                ",
"                      .         ",
"                     ..         ",
"                     ..         ",
"                    .X.         ",
"                    .X.         ",
"                    .X.         ",
"                    .X.         ",
"                   .XX.         ",
"                   .XX.         ",
"                   .XX.         ",
"                   .XX.         ",
"  ..................XX.         ",
"  .XXXXXXXXXXXXXXXX.XX.         ",
"  .X..............X.XX.         ",
"  .XXXXXXXXXXXXXXXX.XX.         ",
"  .X..............X.XX.         ",
"  .XXXXXXXXXXXXXXXX.XX.         ",
"  ..................XX.         ",
"                   .XX.         ",
"                   .XX.         ",
"                   .XX.         ",
"                   .XX.         ",
"                    .X.         ",
"                    .X.         ",
"                    .X.         ",
"                    .X.         ",
"                    .X.         ",
"                     ..         ",
"                     ..         ",
"                      .         ",
"                                "};
