/* XPM */
static char * protractor_xpm[] = {
"32 32 4 1",
" 	s None	c None",
".	c steel blue",
"X	c navajo white",
"o	c black",
"                                ",
"                                ",
"                                ",
"                                ",
"                                ",
"                                ",
"                          ..    ",
"                        ....    ",
"                      ....      ",
"                    ....        ",
"                  ....          ",
"                ....            ",
"               ...  XXXXXXXX    ",
"             ...   XXoooXoXX    ",
"           .....  XXooXoXoXX    ",
"         .... ..  XXoXXXoXXX    ",
"       ....   ..  XXoXXXoXXX    ",
"     ....      .. XXooXoXoXX    ",
"   ....        ..  XXooXXooX    ",
"  ...          ..   XXXXXXXX    ",
"  ............................  ",
"  ............................  ",
"                                ",
"                                ",
"                                ",
"                                ",
"                                ",
"                                ",
"                                ",
"                                ",
"                                ",
"                                "};
