/* XPM */
static char * quant_xpm[] = {
"32 32 4 1",
" 	s None	c None",
".	c black",
"X	c white",
"o	c blue",
"                                ",
"                   .    .     . ",
"                   .   .     .  ",
"                    . .     .   ",
"                    ..     .    ",
"                    ..    .     ",
"                   . .   .      ",
"  ...........     .   . .       ",
"  .XXXX.XXXX.    .    . .       ",
"  .XooX.XooX.          . .     .",
"  .XXXX.XXXX.         .  .    . ",
"  ...........        .    .  .  ",
"  .XXXX.XXXX.       .     . .   ",
"  .XXXX.XXXX.      .       .    ",
"  .XooX.XooX.     .       .     ",
"  .XXXX.XXXX.             .     ",
"  .XXXX.XXXX.             .     ",
"  .XXoX.XXoX.  .X.XXXXXXXXXXXXX ",
"  .XXXX.XXXX.  ....XXXXXXXXXXXX ",
"  .XXXX.XXXX.  .X.XXXXXXXXXXXXX ",
"  .XooX.XooX.  .X.XXXXXXXXXXoXX ",
"  .XXXX.XXXX.  .XXXXXXXXXXXoXXX ",
"  .XXXX.XXXX.  .XXXXXooXXXoXXXX ",
"  ...........  .XXXXoXXoXoXXXXX ",
"               .XXXoXXXXoXXXXXX ",
"               .XXXoXXXXXXXXXXX ",
"               .XXoXXXXXXXXXX.X ",
"               .XoXXXXXXXXX.... ",
"               .XXXXXXXXXXXXX.X ",
"               ................ ",
"                                ",
"                                "};
