/* XPM */
static char * rbulbout_xpm[] = {
"32 32 5 1 22 15",
" 	s None	c None",
".	c black",
"X	c gold",
"o	c white",
"O	c grey80",
"                                ",
"                                ",
"                                ",
"                                ",
"                                ",
"                                ",
"                                ",
"                                ",
"               ..               ",
"              .XX..             ",
"             .XXXXX..           ",
"   . . .  . .XXoooXX.           ",
"   .........XXoooooXX.          ",
"  ..O.O.OO.XXoooooooX.   o      ",
"  ..O.O.OO.ooooXXXooXX.         ",
" ..O.O.O.O.oooXXXXXoXX.         ",
"  .O.O.O.O.XXXXXXXXoXX.         ",
"  .O.O.O.O.XXXXXXXoXX.   o      ",
"   .........XXXXXoXXX.          ",
"    . . . . .XXXXXXX.           ",
"             .XXXXX..           ",
"              .XX..             ",
"               ..               ",
"                                ",
"                                ",
"                                ",
"                                ",
"                                ",
"                                ",
"                                ",
"                                ",
"                                "};
