/* XPM */
static char * rbulb_xpm[] = {
"32 32 6 1 22 15",
" 	s None	c None",
".	c black",
"X	c gold",
"o	c white",
"O	c yellow",
"+	c grey80",
"                                ",
"                                ",
"                                ",
"                                ",
"                                ",
"                                ",
"                                ",
"                                ",
"               ..               ",
"              .XX..             ",
"             .XXXXX..           ",
"   . . .  . .XXoooXX.           ",
"   .........XXoooooXX.      OOO ",
"  ..+.+.++.XXoooooooX.   oOOOOO ",
"  ..+.+.++.ooooXXXooXX.OOOOOOOO ",
" ..+.+.+.+.oooXXXXXoXX.OOOOOOOO ",
"  .+.+.+.+.XXXXXXXXoXX.OOOOOOOO ",
"  .+.+.+.+.XXXXXXXoXX.   oOOOOO ",
"   .........XXXXXoXXX.      OOO ",
"    . . . . .XXXXXXX.           ",
"             .XXXXX..           ",
"              .XX..             ",
"               ..               ",
"                                ",
"                                ",
"                                ",
"                                ",
"                                ",
"                                ",
"                                ",
"                                ",
"                                "};
