/* XPM */
static char * flatright_xpm[] = {
"32 32 3 1",
" 	s None	c None",
".	c black",
"X	c light cyan",
"                                ",
"                                ",
"             ...                ",
"             .X.                ",
"             .X.                ",
"            .XX.                ",
"            .XX.                ",
"            .XX.                ",
"           .XXX.                ",
"           .XXX.                ",
"           .XXX.                ",
"           .XXX.                ",
"           .XXX.                ",
"           .XXX.                ",
"          .XXXX.                ",
"          .XXXX.                ",
"          .XXXX.                ",
"          .XXXX.                ",
"           .XXX.                ",
"           .XXX.                ",
"           .XXX.                ",
"           .XXX.                ",
"           .XXX.                ",
"           .XXX.                ",
"            .XX.                ",
"            .XX.                ",
"            .XX.                ",
"             .X.                ",
"             .X.                ",
"             ...                ",
"                                ",
"                                "};
