/* XPM */
static char * rflatneglens_xpm[] = {
"32 32 3 1",
" 	s None	c None",
".	c black",
"X	c light cyan",
"                                ",
"                                ",
"            ......              ",
"            .XXXX.              ",
"            .XXXX.              ",
"             .XXX.              ",
"             .XXX.              ",
"             .XXX.              ",
"              .XX.              ",
"              .XX.              ",
"              .XX.              ",
"              .XX.              ",
"              .XX.              ",
"              .XX.              ",
"               .X.              ",
"               .X.              ",
"               .X.              ",
"               .X.              ",
"              .XX.              ",
"              .XX.              ",
"              .XX.              ",
"              .XX.              ",
"              .XX.              ",
"              .XX.              ",
"             .XXX.              ",
"             .XXX.              ",
"             .XXX.              ",
"            .XXXX.              ",
"            .XXXX.              ",
"            ......              ",
"                                ",
"                                "};
