/* XPM */
static char * rotlamp_xpm[] = {
"32 32 4 1",
" 	s None	c None",
".	c black",
"X	c #3232CDCD3232",
"o	c #FFFFFFFF0000",
"                                ",
"                       .....    ",
"                       ....     ",
"        .              ....     ",
"       .X.             .....    ",
"      .XXX.            .  ..    ",
"     .XX.XX.              ..    ",
"    .XX.X.XX.             ..    ",
"     .XX.X.XX.           ...    ",
"      .XX.X.XX.         ...     ",
"       .XX.X.XX.        ..      ",
"        .XX.X.XX.               ",
"    ..   .XX.X.XX.        .     ",
"   ...    .XX.X.XX.    ....     ",
"  ...      .XX.X.XX. ...X.      ",
"  ..        .XX.X.XX.XXX.       ",
"  ..         .XX.XX.XXX.        ",
"  ..  .       .XXX.XXX.         ",
"  .....        .X.XXX.          ",
"   ....         .XXX.o          ",
"   ....        .XXX.ooo         ",
"  .....        .XX. oooo        ",
"              ..X.   oooo       ",
"              .X.     oooo      ",
"              ..       oooo     ",
"             ..         oooo    ",
"                         oooo   ",
"                          oooo  ",
"                           oooo ",
"                            oooo",
"                             ooo",
"                              oo"};
