/* XPM */
static char * ruler_xpm[] = {
"32 32 4 1",
" 	s None	c None",
".	c steel blue",
"X	c navajo white",
"o	c black",
"   .                        .   ",
"   .                        .   ",
"   .                        .   ",
"... . ... . ... . ... . ... . ..",
"   .           .            .   ",
"              ...               ",
"   .         .....          .   ",
"   .        .......         .   ",
"   .           .            .   ",
"               .                ",
"   .           .            .   ",
"               .                ",
"   .   .    XXXXXXXX    .   .   ",
"   .  ..    XoooXXXX    ..  .   ",
"   . ...    XoXXXXoX    ... .   ",
"    ........XooXXoXX........    ",
"   . ...    XXXoXXoX    ... .   ",
"      ..    XooXXXXX    ..      ",
"   .   .    XXXXXXXX    .   .   ",
"   .           .            .   ",
"   .           .            .   ",
"               .                ",
"   .           .            .   ",
"               .                ",
"   .        .......         .   ",
"   .         .....          .   ",
"   .          ...           .   ",
"               .                ",
"... . ... . ... . ... . ... . ..",
"                                ",
"   .                        .   ",
"   .                        .   "};
