/* XPM */
static char * run_xpm[] = {
"32 32 4 1",
" 	s None	c None",
".	c black",
"X	c white",
"o	c green",
"                                ",
"                                ",
"                                ",
"                                ",
"   ..................     ..    ",
"   .XXXXXXXXXXXXXXXX..    ..    ",
"   .X.......XXXXXXXX..    ..    ",
"   .XXXXXX.X..XXXXXX..    ..    ",
"   .oooooo.ooo..oooo..    ..    ",
"   .XXXXXX.XXXXX..XX..    ..    ",
"   .XXXXXX.XXXXXXX....    ..    ",
"   .XXXXXXXXXXXXXXXX..    ..    ",
"   ...................    ..    ",
"   .                ..    ..    ",
"   .  ..........    ..    ..    ",
"   .                ..    ..    ",
"   .  .....         ..    ..    ",
"   .                ..    ..    ",
"   .                ..    ..    ",
"   .     ....       ..    ..    ",
"   .                ..    ..    ",
"   .     .......    ..    ..    ",
"   .                ..    ..    ",
"   .     ....       ..    ..    ",
"   .          . ..  .. ........ ",
"   .          .. .  ..  ......  ",
"   .                ..   ....   ",
"   ...................    ..    ",
"    ..................          ",
"                                ",
"                                ",
"                                "};
