/* XPM */
static char * separator_xpm[] = {
"32 32 2 1",
" 	s None	c None",
".	c black",
"                                ",
"                                ",
"                                ",
"                                ",
"                                ",
"                                ",
"                                ",
"                                ",
"                                ",
"                                ",
"                                ",
"                                ",
"                                ",
"     ..                  ..     ",
"     ..                  ..     ",
"     ..                  ..     ",
"     ..                  ..     ",
"     ..                  ..     ",
"     ..                  ..     ",
"     ..                  ..     ",
"     ..                  ..     ",
"     ......................     ",
"     ......................     ",
"                                ",
"                                ",
"                                ",
"                                ",
"                                ",
"                                ",
"                                ",
"                                ",
"                                "};
