/* XPM */
static char * shield2_xpm[] = {
"32 32 4 1",
" 	s None	c None",
".	c black",
"X	c steel blue",
"o	c yellow",
"                                ",
"                 ..             ",
"               ..X.             ",
"             ..XXX.             ",
"           ..XXXXX.             ",
"         ..XXXXXXX.             ",
"         .XXXXXXXX.             ",
"         .XXXXXXXX.             ",
"         .XXXXXXXX.             ",
"         .XXXXXXXX.             ",
"         .XXXXXXXX.             ",
"         .XXXXXXXX.             ",
"         .XXooXXXX.             ",
"         .XXooXXXX.             ",
"         .XXXXXXXX.             ",
"         .XXooXXXX.             ",
"         .XXooXXXX.             ",
"         .XXXXXXXX.             ",
"         .XXooXXXX.             ",
"         .XXooXooX.             ",
"         .XXXXXooX.             ",
"         .XXooXXXX.             ",
"         .XXooXXXX.             ",
"         .XXXXXXXX.             ",
"         .XXXXXXXX.             ",
"         .XXXXXX..              ",
"         .XXXX..                ",
"         .XX..                  ",
"         ...                    ",
"         .                      ",
"                                ",
"                                "};
