/* XPM */
static char * measure2_xpm[] = {
"32 32 3 1",
" 	s None	c None",
".	c navajo white",
"X	c black",
"                                ",
"                                ",
" .............................. ",
" .............XX............... ",
" ............X..X.............. ",
" X...X..........X..XX..XXX.XX.. ",
" .X.X..XXXX....X..X..X.X..X..X. ",
" ..X..........X...X....X..X..X. ",
" .X.X..XXXX...X...X....X..X..X. ",
" X...X............X..X.X..X..X. ",
" X...X........X....XX..X..X..X. ",
" .............................. ",
"              X                 ",
"              X                 ",
"           XXXXXXX              ",
"            XXXXX               ",
"             XXX                ",
"              X                 ",
" .............................. ",
" .............................. ",
" .............................. ",
" ...........XXXXX.............. ",
" ...........X.................. ",
" X...X......X......XX..XXX.XX.. ",
" .X.X..XXXX.XXXX..X..X.X..X..X. ",
" ..X............X.X....X..X..X. ",
" .X.X..XXXX.....X.X....X..X..X. ",
" X...X......X...X.X..X.X..X..X. ",
" X...X.......XXX...XX..X..X..X. ",
" .............................. ",
"                                ",
"                                "};
