/* XPM */
static char * x[] = {
"32 32 6 1",
" 	s None	c None",
".	c black",
"X	c #EEEE2C2C2C2C",
"o	c #E6E6E6E6FAFA",
"O	c light cyan",
"+	c white",
"                                ",
"                                ",
"     .......        .......     ",
"    .XXXXXXX.      .XXXXXXX.    ",
"   .XXXXooXXX.    .XXXooXXXX.   ",
"  .XXXXXooXXX.  O .XXXooXXXXX.  ",
"  .XXXXXXXX..  OO  ..XXXXXXXX.  ",
"  .XXXXXX..   .OO.   ..XXXXXX.  ",
"  .XXXXX.     .OO.     .XXXXX.  ",
"  .XXXXXX...    O   ...XXXXXX.  ",
"  .XXXXXXXXX...  ...XXXXXXXXX.  ",
"  .XXXXXXXXXXX.  .XXXXXXXXXXX.  ",
"   .XXXXXXXXX.    .XXXXXXXXX.   ",
"    .XXXXXXX.+    +.XXXXXXX.    ",
"    +.......+      +.......+    ",
"                                ",
"                                ",
"     .......        .......     ",
"    .XXXXXXX.      .XXXXXXX.    ",
"   .XXXXooXXX.    .XXXooXXXX.   ",
"  .XXXXXooXXX.    .XXXooXXXXX.  ",
"  .XXXXXXXX..  O   ..XXXXXXXX.  ",
"  .XXXXXX..    OO    ..XXXXXX.  ",
"  .XXXXX.     .OO.     .XXXXX.  ",
"  .XXXXXX...   O    ...XXXXXX.  ",
"  .XXXXXXXXX...  ...XXXXXXXXX.  ",
"  .XXXXXXXXXXX.  .XXXXXXXXXXX.  ",
"   .XXXXXXXXX.    .XXXXXXXXX.   ",
"    .XXXXXXX.+    +.XXXXXXX.    ",
"     .......        .......     ",
"                                ",
"                                "};
