/* XPM */
static char * snap_xpm[] = {
"32 32 4 1 16 14",
" 	s None	c None",
".	c black",
"X	c firebrick2",
"o	c lavender",
"                                ",
"                                ",
"        .              ..       ",
"       .X.            .XX.      ",
"      .XXX.           .XXX.     ",
"     .XXXX.          .XXXXX.    ",
"    .XXXXXX.         .XXXXXX.   ",
"    .XXXXXX.        .XXXXXXX.   ",
"   .XXXXXXXX.       .XXXXXXXX.  ",
"   .XXXXXXXXX.     .XXXXXXXXX.  ",
"  .XXXXXXXXXX.     .XXXXXXXXXX. ",
"  .XXXXX.XXXXX.   .XXXXXXXXXXX. ",
"  .XXX..o..XXX.   .XXXXXXXXXXX. ",
"  .XXX.ooo.XXXX. ..XXXXXXXXXXX. ",
"  .XX.oo.oo.XXX. .XXXXXXXXXXXX. ",
" .XXXX.ooo.XXXXX.XXXXXXXXXXXXXX.",
"  .XXX..o..XXXXXXXXXXXXXXXXXXX. ",
"  .XXXXX.XXXXXXXXXXXXXXXXXXXXX. ",
"  .XXXXXXXXXXXXXXXXXXXXXXXXXXX. ",
"  .XXXXXXXXXXXXXXXXXXXXXXXXXXX. ",
"  .XXXXXXXXXXXXXXXXXXXXXXXXXXX. ",
"   .XXXXXXXXXXXXXXXXXXXXXXXXX.  ",
"   .XXXXXXXXXXXXXXXXXXXXXXXXX.  ",
"    .XXXXXXXXXXXXXXXXXXXXXXX.   ",
"    .XXXXXXXXXXXXXXXXXXXXXXX.   ",
"     .XXXXXXXXXXXXXXXXXXXXX.    ",
"      .XXXXXXXXXXXXXXXXXXX.     ",
"       ..XXXXXXXXXXXXXXX..      ",
"         ..XXXXXXXXXXX..        ",
"           .....X.....          ",
"                .               ",
"                                "};
