/* XPM */
static char * snapr_xpm[] = {
"32 32 4 1",
" 	s None	c None",
".	c black",
"X	c firebrick2",
"o	c lavender",
"                                ",
"                                ",
"                                ",
"                                ",
"            .........           ",
"          ..XXXXXXXXX..         ",
"         .XXXXXXX.XXXXX.        ",
"        .XXXXXX..o..XXXX.       ",
"       .XXXXXXX.ooo.XXXXX.      ",
"      .XXXXXXX.oo.oo.XXXXX.     ",
"     .XXXXXXXXX.ooo.XXXXXX.     ",
"     .XXXXXXXXX..o..XXXX..      ",
"    .XXXXXXXXXXXX.XXXXX.        ",
"    .XXXXXXXXXXXXXXXX..         ",
"    .XXXXXXXXXXXXXX..           ",
"    .XXXXXXXXXXXX..             ",
"    .XXXXXXXXXXX.               ",
"    .XXXXXXXXXXXX..             ",
"    .XXXXXXXXXXXXX...           ",
"    .XXXXXXXXXXXXXXXX..         ",
"    .XXXXXXXXXXXXXXXXXX..       ",
"     .XXXXXXXXXXXXXXXXXXX...    ",
"     .XXXXXXXXXXXXXXXXXXXXX.    ",
"      .XXXXXXXXXXXXXXXXXXX.     ",
"       .XXXXXXXXXXXXXXXXX.      ",
"        .XXXXXXXXXXXXXXX.       ",
"         .XXXXXXXXXXXXX.        ",
"          ..XXXXXXXXX..         ",
"            .........           ",
"                                ",
"                                ",
"                                "};
