/* XPM */
static char * switch_xpm[] = {
/* Switch pixmap
* width height ncolors chars_per_pixel */
"32 32 6 1",
/* colors */
" 	s None	m white	c None",
".	s s_black	m black	c black",
"X	s s_yellow	m white	c yellow",
"o	s s_white	m white	c white",
"O	s s_gray	m white	c gray75",
"+	s s_darkgray	m black	c gray50",
/* pixels */
"                                ",
"      ........                  ",
"    ..XXXXXXXX..                ",
"   .XXXXXXXXXXXX.               ",
"  .XXXXXXXXXXXXXX.              ",
"  .XXXXXXXXXXXXXX.............  ",
" .XXXXXXXXXXXXXXXX.ooooooooooO. ",
" .XXXXXXXXXXXXXXXX.+++..+++++O. ",
" .XXXXXXoXoXoXXXXX.++Oo.O++++O. ",
" .XXXXoXXoXoXoXXXX.++Oo.O++++O. ",
" .XXXXX..X.X.XXXXX.+++..+++++O. ",
" .XXXXo.X.X..oXXXX.++++++++++O. ",
" .XXXXX.XoXo.XXXXX.++++++++++O. ",
" .XXXXo.oXoX.oXXXX.+......O++O. ",
" ..XXXX..XX..XXXX..+.ooo+.O++O. ",
"  .XXXXX....XXXXX.++.+..+.O++O. ",
"  ..XXXXX.+XXXXX..++.OOO+.O++O. ",
"   ..XXXX.+XXXX..+++.ooo+.O++O. ",
"    ..XXX.+XXX..o+++.ooo+.O++O. ",
"     ..XX.+XX...o+++.ooo+.O++O. ",
"      .XX.+XX. .o+++.OOOO.O++O. ",
"      .XX.+XX. .o+++......O++O. ",
"     ...........o+++OOOOOOO++O. ",
"     .OooOO+++..o+++++..+++++O. ",
"     ...........o++++Oo.O++++O. ",
"     .OooOO+++..o++++Oo.O++++O. ",
"     ...........o+++++..+++++O. ",
"     .OooOO+++..OOOOOOOOOOOOOO. ",
"      ........  ..............  ",
"        .++.                    ",
"        ....                    ",
"         ..                     "};
