/* XPM */
static char * take_xpm[] = {
/* Take5-1 pixmap
* width height ncolors chars_per_pixel */
"32 32 8 1",
/* colors */
" 	s None	m white	c None",
".	s s_black	m black	c black",
"X	s s_white	m white	c white",
"o	s s_cyan	m white	c cyan",
"O	s s_yellow	m white	c yellow",
"+	s s_darkgray	m black	c gray50",
"@	s s_darkcyan	m black	c cyan4",
"#	s s_gray	m white	c gray75",
/* pixels */
"              ..................",
"   ..       ..XXXXXXXXX.ooo.oooo",
"  .OO..   ..XX+XXXXXXX+.oo@.oo@o",
" .........+X...+XXXX+##.o@o.o@o@",
"  ..OOOOO...X.X.XX+##...o@@.o@@@",
"    ..........X.X+#.. ..o@@.o@@@",
"      ..OOOOO..X+..   .o@@.o@@@@",
"        ......X+.      ....o@@@@",
"          ...++.O..        ...@@",
"            .........         ..",
"              ..OOOOO...        ",
"                .....OOO.       ",
"                  ...OOO.       ",
".....................OOO.       ",
"........................        ",
"........................        ",
"........................        ",
"........................        ",
"........................        ",
"........................        ",
"........................        ",
"........................      ..",
"........................    ..oo",
"............................ooo@",
"........................ooo.oo@o",
"..............XXXXXXXXX.oo@.o@o@",
"............XXXXXXXX+++.o@o.o@@@",
"...........XX..+XXX+###.o@@.o@@@",
"..............+XXX+#....o@@.o@@@",
"       ..++++XXXX+#.  .o@@.o@@@@",
"         ..++++++#.    .........",
"           .......              "};
