/* XPM */
static char * test_xpm[] = {
"32 32 3 1",
" 	s None	c None",
".	c lime green",
"X	c red",
"                                ",
"                                ",
"         ....                   ",
"        .......                 ",
"       ..    ...                ",
"      ..       ..               ",
"      ..        ..              ",
"      ..        ..              ",
"       ..       ..              ",
"        ..     ..               ",
"         ... ...                ",
"          .....                 ",
"         .... ..                ",
"     .......  ..                ",
"    .....     ..             X  ",
"    .        ..            XXX  ",
"            ..            XXX   ",
"           ..            XX     ",
"                       XXX      ",
"                      XXX       ",
"                    XXX         ",
"                   XXX          ",
"                 XXX            ",
"                XXX             ",
"               XX               ",
"             XXX                ",
"            XXX                 ",
"            X                   ",
"                                ",
"                                ",
"                                ",
"                                "};
