/* XPM */
static char * textpage_xpm[] = {
/* width height ncolors chars_per_pixel */
"32 32 8 1",
/* colors */
" 	s None	c None",
".	c #808080",
"X	c white",
"o	c black",
"O	c #C0C0C0",
"+	c #0000FF",
"@	c #FFFF00",
"#	c #FF0000",
/* pixels */
"   ....................         ",
"   .XXXXXXXXXXXXXXXXXX.o        ",
"   .XXXXXXXXXXXXXXXXXX..o       ",
"   .XX.......oXXXXXXXX.O.o      ",
"   .XX.XXo+++oXXXXXXXX.XO.o     ",
"   .XX.XXoooooXXXXXXXX.XXO.o    ",
"   .XX.XXo@@@oXXXXXXXX.oooooo   ",
"   .XX.XXo@@@oXXXXXXXXXXXXXOo   ",
"   .XX.ooo@@@oXX++++++++XXXOo   ",
"   .XX.XXo@@@oXXXXXXXXXXXXXOo   ",
"   .XX.oooooooXX++++++++XXXOo   ",
"   .XX.##oXXXoXXXXXXXXXXXXXOo   ",
"   .XXooooooooXX++++++++XXXOo   ",
"   .XXXXXXXXXXXXXXXXXXXXXXXOo   ",
"   .XX++++++++++++++++++XXXOo   ",
"   .XXXXXXXXXXXXXXXXXXXXXXXOo   ",
"   .XX++++++++++++++++++XXXOo   ",
"   .XXXXXXXXXXXXXXXXXXXXXXXOo   ",
"   .XX++++++++++++++XXX#XXXOo   ",
"   .XXXXXXXXXXXXXXXXXX##OXXOo   ",
"   .XX++++++++++++XXX#O#OXXOo   ",
"   .XXXXXXXXXXXXXXXX#OX#OXXOo   ",
"   .XX++++++++++XXX#OXX#OXXOo   ",
"   .XXXXXXXXXXXXXX######OXXOo   ",
"   .XX++++++++XXX#OOOOO#OXXOo   ",
"   .XXXXXXXXXXXX#OXXXXX#OXXOo   ",
"   .XX++++++XXX###XXXX###XXOo   ",
"   .XXXXXXXXXXXXOOOXXXXOOOXOo   ",
"   .XXXXXXXXXXXXXXXXXXXXXXXOo   ",
"   .XXXXXXXXXXXXXXXXXXXXXXXOo   ",
"   .OOOOOOOOOOOOOOOOOOOOOOOOo   ",
"   oooooooooooooooooooooooooo   "};
