/* XPM */
static char * thickleft_xpm[] = {
"32 32 3 1",
" 	s None	c None",
".	c black",
"X	c light cyan",
"                                ",
"                                ",
"                                ",
"                   ...          ",
"                ...XX.          ",
"               .XXXXX.          ",
"             ..XXXXXX.          ",
"            .XXXXXXXX.          ",
"           .XXXXXXXXX.          ",
"           .XXXXXXXXX.          ",
"          .XXXXXXXXXX.          ",
"         .XXXXXXXXXXX.          ",
"         .XXXXXXXXXXX.          ",
"         .XXXXXXXXXXX.          ",
"         .XXXXXXXXXXX.          ",
"         .XXXXXXXXXXX.          ",
"        .XXXXXXXXXXXX.          ",
"         .XXXXXXXXXXX.          ",
"         .XXXXXXXXXXX.          ",
"         .XXXXXXXXXXX.          ",
"         .XXXXXXXXXXX.          ",
"         .XXXXXXXXXXX.          ",
"          .XXXXXXXXXX.          ",
"           .XXXXXXXXX.          ",
"           .XXXXXXXXX.          ",
"            .XXXXXXXX.          ",
"             ..XXXXXX.          ",
"               .XXXXX.          ",
"                ...XX.          ",
"                   ...          ",
"                                ",
"                                "};
