/* XPM */
static char * thicklens_xpm[] = {
"32 32 3 1",
" 	s None	c None",
".	c black",
"X	c light cyan",
"                                ",
"                                ",
"                 ..             ",
"                .X.             ",
"               .XX.             ",
"              .XXX.             ",
"             .XXXX.             ",
"             .XXXX.             ",
"            .XXXXX.             ",
"            .XXXXX.             ",
"           .XXXXXX.             ",
"           .XXXXXX.             ",
"           .XXXXXX.             ",
"           .XXXXXX.             ",
"          .XXXXXXX.             ",
"          .XXXXXXX.             ",
"          .XXXXXXX.             ",
"          .XXXXXXX.             ",
"           .XXXXXX.             ",
"           .XXXXXX.             ",
"           .XXXXXX.             ",
"           .XXXXXX.             ",
"            .XXXXX.             ",
"            .XXXXX.             ",
"             .XXXX.             ",
"             .XXXX.             ",
"              .XXX.             ",
"               .XX.             ",
"                .X.             ",
"                 ..             ",
"                                ",
"                                "};
