/* XPM */
static char * tool_xpm[] = {
"32 32 4 1",
" 	s None	c None",
".	c black",
"X	c azure2",
"o	c chocolate",
"                                ",
"                                ",
"     .......            .....   ",
"     .XXXXX.             ....   ",
"     .XXXXX.     .........X..   ",
"     ..XXX..   ..XXXXXXXXXX..   ",
"      ..X..   .XXXXXXXXXXXX..   ",
"      ..X..   .XXX........X..   ",
"       .X.   .XX..  .X.  ....   ",
"       .X.   .X.    .X. .....   ",
"       .X.   ...    .X.         ",
"       .X.          .X.         ",
"       .X.          .X.         ",
"       .X.          .X.         ",
"       .X.          .X.         ",
"      ..o..        ..o..        ",
"     .o.o.o.      .o.o.o.       ",
"     .o.o.o.      .o.o.o.       ",
"     .o.o.o.      .o.o.o.       ",
"     .o.o.o.      .o.o.o.       ",
"     .o.o.o.      .o.o.o.       ",
"     .o.o.o.      .o.o.o.       ",
"     .o.o.o.      .o.o.o.       ",
"     .o.o.o.      .o.o.o.       ",
"     .o.o.o.      .o.o.o.       ",
"     .o.o.o.      .o.o.o.       ",
"     .o.o.o.      .o.o.o.       ",
"     .o.o.o.      .o.o.o.       ",
"     .o.o.o.      .o.o.o.       ",
"     .......      .......       ",
"                                ",
"                                "};
