/* XPM */
static char *icons/winhelp[] = {
/* icons/winhelp pixmap
* width height ncolors chars_per_pixel */
"32 32 17 1 ",
/* colors */
"0 c black       m black         s s_black ",
"r c red4        m black         s s_darkred ",
"g c green4      m black         s s_darkgreen ",
"y c yellow4     m black         s s_darkyellow ",
"b c blue4       m black         s s_darkblue ",
"m c magenta4    m black         s s_darkmagenta ",
"c c cyan4       m black         s s_darkcyan ",
"a c gray50      m black         s s_darkgray ",
"A c gray75      m white         s s_gray ",
"R c red         m white         s s_red ",
"G c green       m white         s s_green ",
"Y c yellow      m white         s s_yellow ",
"B c blue        m white         s s_blue ",
"M c magenta     m white         s s_magenta ",
"C c cyan        m white         s s_cyan ",
"W c white       m white         s s_white ",
"  c None        m white         s None ",
/* pixels */
"           00000000             ",
"         00WYWYWYWY00           "
"        0YWYWYWYWYWYW0          ",
"       000000000YWYWYY0         ",
"      0aYYYYYYYYa0WYYYY0        ",
"     0YYYYYYYYYYYY0YYYA0        ",
"    0YYYYYYYYYYYYYY0YAYa0       ",
"   0YYYYYYYYYYYYYYYY0YaY0       ",
"   0YYYYYYYYYYYYYYYYaaYa0       ",
"  0YYYYYYYYYYYYYYYYYY0aY0       ",
"  0YYYYYYY000YYYYYYYY0Ya0       ",
" 0YYYYYYY0a0 0YYYYYYY0aa0       ",
" 0YYYYYY0aY0  0YYYYYY0a0        ",
" 0YYYYYY0Y0   0YYYYYY0a0        ",
" 0YYYYYY00    0YYYYYY00         ",
" 00000000    0YYYYYYa0          ",
"            0YYYYYYY0           ",
"           0YYYYYYY0aaaaaaaaaaa ",
"          0YYYYYYY00aaaaaaaaaaaa",
"          aYYYYYY0Y0aaaaaaaaaaaa",
"         0YYYYYYa0a0aaaaaaaaaaaa",
"         0YYYYYY0aY0    aaaaaaaa",
"         0YYYYYY0Y0  aaaaaaaaa  ",
"         0YYYYYY00a0aaaaaaa     ",
"         00000000Y00aaaaa       ",
"          0YYYYYY0a0aaa         ",
"         00000000aY0aa          ",
"         0YYYYYY0Ya0a           ",
"         0YYYYYY0aY0            ",
"         0YYYYYY0Y0             ",
"         0YYYYYY00              ",
"         00000000               ",
};