/* XPM */
static char * wipeall_xpm[] = {
/* width height ncolors chars_per_pixel */
"32 32 7 1",
/* colors */
" 	s None	c None",
".	c black",
"X	c #000080",
"o	c #C0C0C0",
"O	c #FFFF00",
"+	c #808080",
"@	c white",
/* pixels */
"                                ",
"                                ",
"                                ",
"                                ",
"                                ",
"                         ..     ",
"                        .XX.    ",
"                       .XXX.    ",
"                ...   .XXXX.    ",
"               .ooo. .XXXX.     ",
"              .ooooo.XXXX.      ",
"             .O+ooooo.XX.       ",
"            .O@O+ooooo..        ",
"         ...O@O@O+ooooo.        ",
"    .....Ooo+O@O@O+ooooo.       ",
"     .O@+@Ooo+O@O@O+oooo.       ",
"      .O@+@Ooo+O@O@O+ooo.       ",
"       .O@+@Ooo+O@O@O+o.        ",
"        .O@+@Ooo+O@O@O.         ",
"         .O@+@Ooo+O@O.          ",
"          .O@+@O@O@O.           ",
"           .O@+@O@O.            ",
"            .O@O@O.             ",
"             .O@O.              ",
"              ...               ",
"              O                 ",
"            O@                  ",
"    O@O@O@O@                    ",
"                                ",
"                                ",
"                                ",
"                                "};
